{"title":"The Help 2011 CAM XViD - IMAGiNE","uid":6604982,"size":2215588172,"categoryP":"video","categoryS":"movies","magnet":"?xt=urn:btih:e3f8af583c92c0f07431371c39bcd205b5d1eafd&amp;dn=The+Help+2011+CAM+XViD+-+IMAGiNE&amp;tr=udp%3A%2F%2Ftracker.openbittorrent.com%3A80&amp;tr=udp%3A%2F%2Fopen.demonii.com%3A1337&amp;tr=udp%3A%2F%2Ftracker.coppersurfer.tk%3A6969&amp;tr=udp%3A%2F%2Fexodus.desync.com%3A6969","seeders":1,"leechers":0,"uploader":".BONE.","files":151,"time":1313362294,"description":"The Help 2011 CAM XViD - IMAGiNE ******************************************\n\nRipper ...........: IMAGiNE IMDB Rating.......: 8.0/10\nVideo Codec.......: XViD Release Date......: 14/08/11\nAudio Codec.......: MP3 Theatre Date......: 10/08/11\nAudio Bitrate.....: 128 Runtime...........: 2h 18mn\nSubtitles.........: NIL Language..........: ENGLISH\nResolution........: 640 x 336 MDb URL..........: http://www.imdb.com/title/tt1454029\n\nDETAILS:\n\nVideo\nID : 0\nFormat : MPEG-4 Visual\nFormat profile : Advanced Simple@L5\nFormat settings, BVOP : 2\nFormat settings, QPel : No\nFormat settings, GMC : No warppoints\nFormat settings, Matrix : Default (MPEG)\nMuxing mode : Packed bitstream\nCodec ID : XVID\nCodec ID/Hint : XviD\nDuration : 2h 18mn\nBit rate : 1 968 Kbps\nWidth : 640 pixels\nHeight : 336 pixels\nDisplay aspect ratio : 1.905\nFrame rate : 29.970 fps\nColor space : YUV\nChroma subsampling : 4:2:0\nBit depth : 8 bits\nScan type : Progressive\nCompression mode : Lossy\nBits/(Pixel*Frame) : 0.305\nStream size : 1.91 GiB (93%)\nWriting library : XviD 64\n\nAudio\nID : 1\nFormat : MPEG Audio\nFormat version : Version 1\nFormat profile : Layer 3\nMode : Joint stereo\nMode extension : MS Stereo\nCodec ID : 55\nCodec ID/Hint : MP3\nDuration : 2h 18mn\nBit rate mode : Constant\nBit rate : 128 Kbps\nChannel(s) : 2 channels\nSampling rate : 48.0 KHz\nCompression mode : Lossy\nStream size : 127 MiB (6%)\nAlignment : Split accross interleaves\nInterleave, duration : 33 ms (1.00 video frame)\nWriting library : LAME3.98r\nEncoding settings : -m j -V 4 -q 2 -lowpass 17 -b 128\n\nSOURCES:\nVIDEO: ............... The Help 2011 CAM XviD ERDNA Thanks :D\nAUDIO: ............... Thanks Matey :P\n\nNOTES:\n\nHere we are with a CAM release of The Help for you to enjoy. :)\n\nThanks again to ERDNA for the source. We have done our normal things of adjusting the gamma,\nbrightness, croma, and rgb colors a bit. Has a slight flicker, bot a bad cam...\n\nAudio is nice cam audio and will do until line audio comes along.Enjoy!\n\nSCREENS:\n\n\n\n","torrent":{"xt":"urn:btih:e3f8af583c92c0f07431371c39bcd205b5d1eafd","amp;dn":"The+Help+2011+CAM+XViD+-+IMAGiNE","amp;tr":["udp%3A%2F%2Ftracker.openbittorrent.com%3A80","udp%3A%2F%2Fopen.demonii.com%3A1337","udp%3A%2F%2Ftracker.coppersurfer.tk%3A6969","udp%3A%2F%2Fexodus.desync.com%3A6969"],"infoHash":"e3f8af583c92c0f07431371c39bcd205b5d1eafd","infoHashBuffer":{"type":"Buffer","data":[227,248,175,88,60,146,192,240,116,49,55,28,57,188,210,5,181,209,234,253]},"announce":[],"urlList":[]}}